{
  "accessors": [
    {
      "bufferView": 2,
      "componentType": 5126,
      "count": 65532,
      "max": [
        53.503700256347656,
        85.90489959716797,
        59.72869873046875
      ],
      "min": [
        -52.3921012878418,
        -138.69500732421875,
        -87.34120178222656
      ],
      "type": "VEC3"
    },
    {
      "bufferView": 2,
      "byteOffset": 786384,
      "componentType": 5126,
      "count": 65532,
      "max": [
        0.9999836683273315,
        0.9999989867210388,
        0.9999867677688599
      ],
      "min": [
        -0.9998860955238342,
        -0.9999962449073792,
        -0.9998613595962524
      ],
      "type": "VEC3"
    },
    {
      "bufferView": 1,
      "componentType": 5126,
      "count": 65532,
      "max": [
        0.9973459839820862,
        0.9968429803848267
      ],
      "min": [
        0.002270770026370883,
        0.0007217819802463055
      ],
      "type": "VEC2"
    },
    {
      "bufferView": 0,
      "componentType": 5125,
      "count": 356229,
      "type": "SCALAR"
    },
    {
      "bufferView": 2,
      "byteOffset": 1572768,
      "componentType": 5126,
      "count": 65532,
      "max": [
        52.753501892089844,
        74.4927978515625,
        89.2437973022461
      ],
      "min": [
        -80.44609832763672,
        -157.36199951171875,
        -86.19879913330078
      ],
      "type": "VEC3"
    },
    {
      "bufferView": 2,
      "byteOffset": 2359152,
      "componentType": 5126,
      "count": 65532,
      "max": [
        0.9999901056289673,
        0.9996536374092102,
        0.9999242424964905
      ],
      "min": [
        -0.9999163746833801,
        -0.9998535513877869,
        -0.9999809861183167
      ],
      "type": "VEC3"
    },
    {
      "bufferView": 1,
      "byteOffset": 524256,
      "componentType": 5126,
      "count": 65532,
      "max": [
        0.9971269965171814,
        0.9974499940872192
      ],
      "min": [
        0.0006483200122602284,
        0.0006814899970777333
      ],
      "type": "VEC2"
    },
    {
      "bufferView": 0,
      "byteOffset": 1424916,
      "componentType": 5125,
      "count": 340488,
      "type": "SCALAR"
    },
    {
      "bufferView": 2,
      "byteOffset": 3145536,
      "componentType": 5126,
      "count": 61732,
      "max": [
        77.0708999633789,
        84.11799621582031,
        89.4198989868164
      ],
      "min": [
        -79.60929870605469,
        -158.18299865722656,
        -86.77989959716797
      ],
      "type": "VEC3"
    },
    {
      "bufferView": 2,
      "byteOffset": 3886320,
      "componentType": 5126,
      "count": 61732,
      "max": [
        0.9999637603759766,
        0.9998236298561096,
        0.9999798536300659
      ],
      "min": [
        -0.9998815059661865,
        -0.9999809861183167,
        -0.9996403455734253
      ],
      "type": "VEC3"
    },
    {
      "bufferView": 1,
      "byteOffset": 1048512,
      "componentType": 5126,
      "count": 61732,
      "max": [
        0.9893029928207397,
        0.9974110126495361
      ],
      "min": [
        0.002270770026370883,
        0.0005190970259718597
      ],
      "type": "VEC2"
    },
    {
      "bufferView": 0,
      "byteOffset": 2786868,
      "componentType": 5125,
      "count": 259293,
      "type": "SCALAR"
    }
  ],
  "asset": {
    "extras": {
      "author": "Auckland Museum (https://sketchfab.com/aucklandmuseum)",
      "license": "CC-BY-4.0 (http://creativecommons.org/licenses/by/4.0/)",
      "source": "https://sketchfab.com/3d-models/little-blue-penguin-korora-8a58020139cf43bc821bfdfa01e13208",
      "title": "Little Blue Penguin / Kororā"
    },
    "generator": "Sketchfab-12.67.0",
    "version": "2.0"
  },
  "bufferViews": [
    {
      "buffer": 0,
      "byteLength": 3824040,
      "name": "floatBufferViews",
      "target": 34963
    },
    {
      "buffer": 0,
      "byteLength": 1542368,
      "byteOffset": 3824040,
      "byteStride": 8,
      "name": "floatBufferViews",
      "target": 34962
    },
    {
      "buffer": 0,
      "byteLength": 4627104,
      "byteOffset": 5366408,
      "byteStride": 12,
      "name": "floatBufferViews",
      "target": 34962
    }
  ],
  "buffers": [
    {
      "byteLength": 9993512,
      "uri": "scene.bin"
    }
  ],
  "extensionsRequired": [
    "KHR_materials_pbrSpecularGlossiness"
  ],
  "extensionsUsed": [
    "KHR_materials_pbrSpecularGlossiness"
  ],
  "images": [
    {
      "uri": "textures/material_diffuse.png"
    }
  ],
  "materials": [
    {
      "doubleSided": true,
      "extensions": {
        "KHR_materials_pbrSpecularGlossiness": {
          "diffuseFactor": [
            0.9,
            0.9,
            0.9,
            1.0
          ],
          "diffuseTexture": {
            "index": 0
          },
          "glossinessFactor": 0.31,
          "specularFactor": [
            0.0,
            0.0,
            0.0
          ]
        }
      },
      "name": "material"
    }
  ],
  "meshes": [
    {
      "name": "Object_0",
      "primitives": [
        {
          "attributes": {
            "NORMAL": 1,
            "POSITION": 0,
            "TEXCOORD_0": 2
          },
          "indices": 3,
          "material": 0,
          "mode": 4
        }
      ]
    },
    {
      "name": "Object_1",
      "primitives": [
        {
          "attributes": {
            "NORMAL": 5,
            "POSITION": 4,
            "TEXCOORD_0": 6
          },
          "indices": 7,
          "material": 0,
          "mode": 4
        }
      ]
    },
    {
      "name": "Object_2",
      "primitives": [
        {
          "attributes": {
            "NORMAL": 9,
            "POSITION": 8,
            "TEXCOORD_0": 10
          },
          "indices": 11,
          "material": 0,
          "mode": 4
        }
      ]
    }
  ],
  "nodes": [
    {
      "children": [
        1
      ],
      "matrix": [
        1.0,
        0.0,
        0.0,
        0.0,
        0.0,
        -0.9952043294906616,
        0.09781804680824258,
        0.0,
        0.0,
        -0.09781804680824258,
        -0.9952043294906616,
        0.0,
        0.0,
        -34.82452774047852,
        40.70842742919921,
        1.0
      ],
      "name": "Sketchfab_model"
    },
    {
      "children": [
        2,
        3,
        4
      ],
      "name": "Blue_Penguin.obj.cleaner.gles"
    },
    {
      "mesh": 0,
      "name": "Object_2"
    },
    {
      "mesh": 1,
      "name": "Object_3"
    },
    {
      "mesh": 2,
      "name": "Object_4"
    }
  ],
  "samplers": [
    {
      "magFilter": 9729,
      "minFilter": 9987,
      "wrapS": 10497,
      "wrapT": 10497
    }
  ],
  "scene": 0,
  "scenes": [
    {
      "name": "Sketchfab_Scene",
      "nodes": [
        0
      ]
    }
  ],
  "textures": [
    {
      "sampler": 0,
      "source": 0
    }
  ]
}
