{
  "accessors": [
    {
      "bufferView": 2,
      "componentType": 5126,
      "count": 65532,
      "max": [
        -29.270599365234375,
        31.875499725341797,
        23.122100830078125
      ],
      "min": [
        -56.5640983581543,
        0.37779998779296875,
        -15.523099899291992
      ],
      "type": "VEC3"
    },
    {
      "bufferView": 2,
      "byteOffset": 786384,
      "componentType": 5126,
      "count": 65532,
      "max": [
        0.9999973773956299,
        0.999521791934967,
        0.9998564124107361
      ],
      "min": [
        -0.9999931454658508,
        -0.9948794841766357,
        -0.9995496273040771
      ],
      "type": "VEC3"
    },
    {
      "bufferView": 1,
      "componentType": 5126,
      "count": 65532,
      "max": [
        0.7077295780181885,
        0.9993829727172852
      ],
      "min": [
        0.000589221715927124,
        0.42073380947113037
      ],
      "type": "VEC2"
    },
    {
      "bufferView": 1,
      "byteOffset": 524256,
      "componentType": 5126,
      "count": 65532,
      "max": [
        0.7077295780181885,
        0.9993829727172852
      ],
      "min": [
        0.000589221715927124,
        0.42073380947113037
      ],
      "type": "VEC2"
    },
    {
      "bufferView": 1,
      "byteOffset": 1048512,
      "componentType": 5126,
      "count": 65532,
      "max": [
        0.7077295780181885,
        0.9993829727172852
      ],
      "min": [
        0.000589221715927124,
        0.42073380947113037
      ],
      "type": "VEC2"
    },
    {
      "bufferView": 1,
      "byteOffset": 1572768,
      "componentType": 5126,
      "count": 65532,
      "max": [
        0.7077295780181885,
        0.9993829727172852
      ],
      "min": [
        0.000589221715927124,
        0.42073380947113037
      ],
      "type": "VEC2"
    },
    {
      "bufferView": 1,
      "byteOffset": 2097024,
      "componentType": 5126,
      "count": 65532,
      "max": [
        0.7077295780181885,
        0.9993829727172852
      ],
      "min": [
        0.000589221715927124,
        0.42073380947113037
      ],
      "type": "VEC2"
    },
    {
      "bufferView": 1,
      "byteOffset": 2621280,
      "componentType": 5126,
      "count": 65532,
      "max": [
        0.7077295780181885,
        0.9993829727172852
      ],
      "min": [
        0.000589221715927124,
        0.42073380947113037
      ],
      "type": "VEC2"
    },
    {
      "bufferView": 1,
      "byteOffset": 3145536,
      "componentType": 5126,
      "count": 65532,
      "max": [
        0.7077295780181885,
        0.9993829727172852
      ],
      "min": [
        0.000589221715927124,
        0.42073380947113037
      ],
      "type": "VEC2"
    },
    {
      "bufferView": 1,
      "byteOffset": 3669792,
      "componentType": 5126,
      "count": 65532,
      "max": [
        0.7077295780181885,
        0.9993829727172852
      ],
      "min": [
        0.000589221715927124,
        0.42073380947113037
      ],
      "type": "VEC2"
    },
    {
      "bufferView": 1,
      "byteOffset": 4194048,
      "componentType": 5126,
      "count": 65532,
      "max": [
        0.7077295780181885,
        0.9993829727172852
      ],
      "min": [
        0.000589221715927124,
        0.42073380947113037
      ],
      "type": "VEC2"
    },
    {
      "bufferView": 0,
      "componentType": 5125,
      "count": 65532,
      "type": "SCALAR"
    },
    {
      "bufferView": 2,
      "byteOffset": 1572768,
      "componentType": 5126,
      "count": 64158,
      "max": [
        -27.00149917602539,
        32.13349914550781,
        23.122100830078125
      ],
      "min": [
        -56.56169891357422,
        0.006300000008195639,
        -15.523099899291992
      ],
      "type": "VEC3"
    },
    {
      "bufferView": 2,
      "byteOffset": 2342664,
      "componentType": 5126,
      "count": 64158,
      "max": [
        0.9999924898147583,
        0.9995217323303223,
        0.9998563528060913
      ],
      "min": [
        -0.9999978542327881,
        -0.9999983906745911,
        -0.9998506903648376
      ],
      "type": "VEC3"
    },
    {
      "bufferView": 1,
      "byteOffset": 4718304,
      "componentType": 5126,
      "count": 64158,
      "max": [
        0.7077198028564453,
        0.9994536638259888
      ],
      "min": [
        0.0006073713302612305,
        0.4121752977371216
      ],
      "type": "VEC2"
    },
    {
      "bufferView": 1,
      "byteOffset": 5231568,
      "componentType": 5126,
      "count": 64158,
      "max": [
        0.7077198028564453,
        0.9994536638259888
      ],
      "min": [
        0.0006073713302612305,
        0.4121752977371216
      ],
      "type": "VEC2"
    },
    {
      "bufferView": 1,
      "byteOffset": 5744832,
      "componentType": 5126,
      "count": 64158,
      "max": [
        0.7077198028564453,
        0.9994536638259888
      ],
      "min": [
        0.0006073713302612305,
        0.4121752977371216
      ],
      "type": "VEC2"
    },
    {
      "bufferView": 1,
      "byteOffset": 6258096,
      "componentType": 5126,
      "count": 64158,
      "max": [
        0.7077198028564453,
        0.9994536638259888
      ],
      "min": [
        0.0006073713302612305,
        0.4121752977371216
      ],
      "type": "VEC2"
    },
    {
      "bufferView": 1,
      "byteOffset": 6771360,
      "componentType": 5126,
      "count": 64158,
      "max": [
        0.7077198028564453,
        0.9994536638259888
      ],
      "min": [
        0.0006073713302612305,
        0.4121752977371216
      ],
      "type": "VEC2"
    },
    {
      "bufferView": 1,
      "byteOffset": 7284624,
      "componentType": 5126,
      "count": 64158,
      "max": [
        0.7077198028564453,
        0.9994536638259888
      ],
      "min": [
        0.0006073713302612305,
        0.4121752977371216
      ],
      "type": "VEC2"
    },
    {
      "bufferView": 1,
      "byteOffset": 7797888,
      "componentType": 5126,
      "count": 64158,
      "max": [
        0.7077198028564453,
        0.9994536638259888
      ],
      "min": [
        0.0006073713302612305,
        0.4121752977371216
      ],
      "type": "VEC2"
    },
    {
      "bufferView": 1,
      "byteOffset": 8311152,
      "componentType": 5126,
      "count": 64158,
      "max": [
        0.7077198028564453,
        0.9994536638259888
      ],
      "min": [
        0.0006073713302612305,
        0.4121752977371216
      ],
      "type": "VEC2"
    },
    {
      "bufferView": 1,
      "byteOffset": 8824416,
      "componentType": 5126,
      "count": 64158,
      "max": [
        0.7077198028564453,
        0.9994536638259888
      ],
      "min": [
        0.0006073713302612305,
        0.4121752977371216
      ],
      "type": "VEC2"
    },
    {
      "bufferView": 0,
      "byteOffset": 262128,
      "componentType": 5125,
      "count": 64158,
      "type": "SCALAR"
    },
    {
      "bufferView": 2,
      "byteOffset": 3112560,
      "componentType": 5126,
      "count": 48285,
      "max": [
        0.3082948327064514,
        -0.3761110007762909,
        0.19989964365959167
      ],
      "min": [
        -0.6321098208427429,
        -0.888110876083374,
        -0.19989977777004242
      ],
      "type": "VEC3"
    },
    {
      "bufferView": 2,
      "byteOffset": 3691980,
      "componentType": 5126,
      "count": 48285,
      "max": [
        0.9982247352600098,
        0.9999885559082031,
        0.9978188276290894
      ],
      "min": [
        -0.9968491792678833,
        -0.9999918937683105,
        -0.9997543096542358
      ],
      "type": "VEC3"
    },
    {
      "bufferView": 1,
      "byteOffset": 9337680,
      "componentType": 5126,
      "count": 48285,
      "max": [
        0.7278957962989807,
        0.9994939565658569
      ],
      "min": [
        0.0005077794194221497,
        0.5605894327163696
      ],
      "type": "VEC2"
    },
    {
      "bufferView": 1,
      "byteOffset": 9723960,
      "componentType": 5126,
      "count": 48285,
      "max": [
        0.7278957962989807,
        0.9994939565658569
      ],
      "min": [
        0.0005077794194221497,
        0.5605894327163696
      ],
      "type": "VEC2"
    },
    {
      "bufferView": 1,
      "byteOffset": 10110240,
      "componentType": 5126,
      "count": 48285,
      "max": [
        0.7278957962989807,
        0.9994939565658569
      ],
      "min": [
        0.0005077794194221497,
        0.5605894327163696
      ],
      "type": "VEC2"
    },
    {
      "bufferView": 1,
      "byteOffset": 10496520,
      "componentType": 5126,
      "count": 48285,
      "max": [
        0.7278957962989807,
        0.9994939565658569
      ],
      "min": [
        0.0005077794194221497,
        0.5605894327163696
      ],
      "type": "VEC2"
    },
    {
      "bufferView": 1,
      "byteOffset": 10882800,
      "componentType": 5126,
      "count": 48285,
      "max": [
        0.7278957962989807,
        0.9994939565658569
      ],
      "min": [
        0.0005077794194221497,
        0.5605894327163696
      ],
      "type": "VEC2"
    },
    {
      "bufferView": 1,
      "byteOffset": 11269080,
      "componentType": 5126,
      "count": 48285,
      "max": [
        0.7278957962989807,
        0.9994939565658569
      ],
      "min": [
        0.0005077794194221497,
        0.5605894327163696
      ],
      "type": "VEC2"
    },
    {
      "bufferView": 1,
      "byteOffset": 11655360,
      "componentType": 5126,
      "count": 48285,
      "max": [
        0.7278957962989807,
        0.9994939565658569
      ],
      "min": [
        0.0005077794194221497,
        0.5605894327163696
      ],
      "type": "VEC2"
    },
    {
      "bufferView": 1,
      "byteOffset": 12041640,
      "componentType": 5126,
      "count": 48285,
      "max": [
        0.7278957962989807,
        0.9994939565658569
      ],
      "min": [
        0.0005077794194221497,
        0.5605894327163696
      ],
      "type": "VEC2"
    },
    {
      "bufferView": 1,
      "byteOffset": 12427920,
      "componentType": 5126,
      "count": 48285,
      "max": [
        0.7278957962989807,
        0.9994939565658569
      ],
      "min": [
        0.0005077794194221497,
        0.5605894327163696
      ],
      "type": "VEC2"
    },
    {
      "bufferView": 0,
      "byteOffset": 518760,
      "componentType": 5125,
      "count": 48285,
      "type": "SCALAR"
    },
    {
      "bufferView": 2,
      "byteOffset": 4271400,
      "componentType": 5126,
      "count": 422,
      "max": [
        0.3082948327064514,
        -0.5212600231170654,
        0.06152912601828575
      ],
      "min": [
        0.30829471349716187,
        -0.7443005442619324,
        -0.18478529155254364
      ],
      "type": "VEC3"
    },
    {
      "bufferView": 2,
      "byteOffset": 4276464,
      "componentType": 5126,
      "count": 422,
      "max": [
        1.0,
        6.756183211109601e-06,
        5.022220648243092e-06
      ],
      "min": [
        1.0,
        -1.3799208318232559e-05,
        -1.4079838365432806e-05
      ],
      "type": "VEC3"
    },
    {
      "bufferView": 1,
      "byteOffset": 12814200,
      "componentType": 5126,
      "count": 422,
      "max": [
        0.5239280462265015,
        0.9994327425956726
      ],
      "min": [
        0.0007066428661346436,
        0.5074646472930908
      ],
      "type": "VEC2"
    },
    {
      "bufferView": 1,
      "byteOffset": 12817576,
      "componentType": 5126,
      "count": 422,
      "max": [
        0.5239280462265015,
        0.9994327425956726
      ],
      "min": [
        0.0007066428661346436,
        0.5074646472930908
      ],
      "type": "VEC2"
    },
    {
      "bufferView": 1,
      "byteOffset": 12820952,
      "componentType": 5126,
      "count": 422,
      "max": [
        0.5239280462265015,
        0.9994327425956726
      ],
      "min": [
        0.0007066428661346436,
        0.5074646472930908
      ],
      "type": "VEC2"
    },
    {
      "bufferView": 1,
      "byteOffset": 12824328,
      "componentType": 5126,
      "count": 422,
      "max": [
        0.5239280462265015,
        0.9994327425956726
      ],
      "min": [
        0.0007066428661346436,
        0.5074646472930908
      ],
      "type": "VEC2"
    },
    {
      "bufferView": 1,
      "byteOffset": 12827704,
      "componentType": 5126,
      "count": 422,
      "max": [
        0.5239280462265015,
        0.9994327425956726
      ],
      "min": [
        0.0007066428661346436,
        0.5074646472930908
      ],
      "type": "VEC2"
    },
    {
      "bufferView": 1,
      "byteOffset": 12831080,
      "componentType": 5126,
      "count": 422,
      "max": [
        0.5239280462265015,
        0.9994327425956726
      ],
      "min": [
        0.0007066428661346436,
        0.5074646472930908
      ],
      "type": "VEC2"
    },
    {
      "bufferView": 1,
      "byteOffset": 12834456,
      "componentType": 5126,
      "count": 422,
      "max": [
        0.5239280462265015,
        0.9994327425956726
      ],
      "min": [
        0.0007066428661346436,
        0.5074646472930908
      ],
      "type": "VEC2"
    },
    {
      "bufferView": 1,
      "byteOffset": 12837832,
      "componentType": 5126,
      "count": 422,
      "max": [
        0.5239280462265015,
        0.9994327425956726
      ],
      "min": [
        0.0007066428661346436,
        0.5074646472930908
      ],
      "type": "VEC2"
    },
    {
      "bufferView": 1,
      "byteOffset": 12841208,
      "componentType": 5126,
      "count": 422,
      "max": [
        0.5239280462265015,
        0.9994327425956726
      ],
      "min": [
        0.0007066428661346436,
        0.5074646472930908
      ],
      "type": "VEC2"
    },
    {
      "bufferView": 0,
      "byteOffset": 711900,
      "componentType": 5125,
      "count": 474,
      "type": "SCALAR"
    }
  ],
  "asset": {
    "extras": {
      "author": "CanYuTsai (https://sketchfab.com/canyutsai1)",
      "license": "CC-BY-4.0 (http://creativecommons.org/licenses/by/4.0/)",
      "source": "https://sketchfab.com/3d-models/great-white-shark-3d-model-7a3f7e70f7054018919ad930ca586c62",
      "title": "Great White Shark 3D Model"
    },
    "generator": "Sketchfab-12.67.0",
    "version": "2.0"
  },
  "bufferViews": [
    {
      "buffer": 0,
      "byteLength": 713796,
      "name": "floatBufferViews",
      "target": 34963
    },
    {
      "buffer": 0,
      "byteLength": 12844584,
      "byteOffset": 713796,
      "byteStride": 8,
      "name": "floatBufferViews",
      "target": 34962
    },
    {
      "buffer": 0,
      "byteLength": 4281528,
      "byteOffset": 13558380,
      "byteStride": 12,
      "name": "floatBufferViews",
      "target": 34962
    }
  ],
  "buffers": [
    {
      "byteLength": 17839908,
      "uri": "scene.bin"
    }
  ],
  "images": [
    {
      "uri": "textures/Material_92_baseColor.png"
    },
    {
      "uri": "textures/Material_94_baseColor.png"
    },
    {
      "uri": "textures/Material_96_baseColor.png"
    }
  ],
  "materials": [
    {
      "doubleSided": true,
      "name": "Material_92",
      "pbrMetallicRoughness": {
        "baseColorTexture": {
          "index": 0
        },
        "metallicFactor": 0.0,
        "roughnessFactor": 0.505426017685382
      }
    },
    {
      "doubleSided": true,
      "name": "Material_94",
      "pbrMetallicRoughness": {
        "baseColorTexture": {
          "index": 1
        },
        "metallicFactor": 0.0,
        "roughnessFactor": 0.4143856078821507
      }
    },
    {
      "doubleSided": true,
      "name": "Material_96",
      "pbrMetallicRoughness": {
        "baseColorTexture": {
          "index": 2
        },
        "metallicFactor": 0.0,
        "roughnessFactor": 0.8594042328094864
      }
    }
  ],
  "meshes": [
    {
      "name": "node_id6_Material_92_0",
      "primitives": [
        {
          "attributes": {
            "NORMAL": 1,
            "POSITION": 0,
            "TEXCOORD_0": 2,
            "TEXCOORD_1": 3,
            "TEXCOORD_2": 4,
            "TEXCOORD_3": 5,
            "TEXCOORD_4": 6,
            "TEXCOORD_5": 7,
            "TEXCOORD_6": 8,
            "TEXCOORD_7": 9,
            "TEXCOORD_8": 10
          },
          "indices": 11,
          "material": 0,
          "mode": 4
        }
      ]
    },
    {
      "name": "node_id6_Material_92_0",
      "primitives": [
        {
          "attributes": {
            "NORMAL": 13,
            "POSITION": 12,
            "TEXCOORD_0": 14,
            "TEXCOORD_1": 15,
            "TEXCOORD_2": 16,
            "TEXCOORD_3": 17,
            "TEXCOORD_4": 18,
            "TEXCOORD_5": 19,
            "TEXCOORD_6": 20,
            "TEXCOORD_7": 21,
            "TEXCOORD_8": 22
          },
          "indices": 23,
          "material": 0,
          "mode": 4
        }
      ]
    },
    {
      "name": "node_id8_Material_94_0",
      "primitives": [
        {
          "attributes": {
            "NORMAL": 25,
            "POSITION": 24,
            "TEXCOORD_0": 26,
            "TEXCOORD_1": 27,
            "TEXCOORD_2": 28,
            "TEXCOORD_3": 29,
            "TEXCOORD_4": 30,
            "TEXCOORD_5": 31,
            "TEXCOORD_6": 32,
            "TEXCOORD_7": 33,
            "TEXCOORD_8": 34
          },
          "indices": 35,
          "material": 1,
          "mode": 4
        }
      ]
    },
    {
      "name": "node_id10_Material_96_0",
      "primitives": [
        {
          "attributes": {
            "NORMAL": 37,
            "POSITION": 36,
            "TEXCOORD_0": 38,
            "TEXCOORD_1": 39,
            "TEXCOORD_2": 40,
            "TEXCOORD_3": 41,
            "TEXCOORD_4": 42,
            "TEXCOORD_5": 43,
            "TEXCOORD_6": 44,
            "TEXCOORD_7": 45,
            "TEXCOORD_8": 46
          },
          "indices": 47,
          "material": 2,
          "mode": 4
        }
      ]
    }
  ],
  "nodes": [
    {
      "children": [
        1
      ],
      "matrix": [
        1.0,
        0.0,
        0.0,
        0.0,
        0.0,
        2.220446049250313e-16,
        -1.0,
        0.0,
        0.0,
        1.0,
        2.220446049250313e-16,
        0.0,
        0.0,
        0.0,
        0.0,
        1.0
      ],
      "name": "Sketchfab_model"
    },
    {
      "children": [
        2
      ],
      "matrix": [
        1.0,
        0.0,
        0.0,
        0.0,
        0.0,
        0.0,
        1.0,
        0.0,
        0.0,
        -1.0,
        0.0,
        0.0,
        0.0,
        0.0,
        0.0,
        1.0
      ],
      "name": "ed48fbd0c66f4a289be7306909ef52f1.fbx"
    },
    {
      "children": [
        3
      ],
      "name": "RootNode"
    },
    {
      "children": [
        4
      ],
      "name": "root"
    },
    {
      "children": [
        5,
        8
      ],
      "matrix": [
        0.000996193879801151,
        0.0,
        8.71656402582734e-05,
        0.0,
        3.247173038269102e-13,
        0.0010000000474974513,
        -3.711111279391943e-12,
        0.0,
        -8.71656402582734e-05,
        3.7252903585404895e-12,
        0.000996193879801151,
        0.0,
        0.04513880982995033,
        -0.12498077750205994,
        0.0103456424549222,
        1.0
      ],
      "name": "node_id12"
    },
    {
      "children": [
        6,
        7
      ],
      "matrix": [
        7.273822239624801,
        1.3139832494948582e-06,
        -0.5501306005575692,
        0.0,
        0.45819975841745997,
        -6.102029964572538e-07,
        6.058313407014444,
        0.0,
        1.1367185689399913e-06,
        -6.607151985168316,
        -7.51454704835459e-07,
        0.0,
        340.5810546875,
        -19.656524658203125,
        863.7508544921875,
        1.0
      ],
      "name": "node_id6"
    },
    {
      "mesh": 0,
      "name": "node_id6_Material_92_0"
    },
    {
      "mesh": 1,
      "name": "node_id6_Material_92_0"
    },
    {
      "children": [
        9,
        11
      ],
      "matrix": [
        0.12197095502070844,
        0.0,
        1.612701342601422,
        0.0,
        0.0,
        1.6173076629638672,
        0.0,
        0.0,
        -1.612700985992023,
        0.0,
        0.12197092804981938,
        0.0,
        376.1153259277344,
        646.951416015625,
        442.265380859375,
        1.0
      ],
      "name": "node_id8"
    },
    {
      "children": [
        10
      ],
      "matrix": [
        544.4464721679688,
        0.0,
        0.0,
        0.0,
        0.0,
        -6.490306981380259e-05,
        -544.4463500976563,
        0.0,
        0.0,
        544.4463500976563,
        -6.490306981380259e-05,
        0.0,
        95.84062194824219,
        -400.0175476074219,
        -114.22084045410156,
        1.0
      ],
      "name": "Object_9"
    },
    {
      "mesh": 2,
      "name": "node_id8_Material_94_0"
    },
    {
      "children": [
        12
      ],
      "matrix": [
        1.0,
        -2.4815418376590827e-24,
        -2.7852684585799588e-09,
        0.0,
        2.4815415043975423e-24,
        0.9999998807907104,
        -1.3441684953986697e-23,
        0.0,
        2.7852687906098327e-09,
        1.3441688151822746e-23,
        1.0000001192092896,
        0.0,
        -3.585264494176954e-05,
        -9.468635653320234e-06,
        1.3463002233038424e-06,
        1.0
      ],
      "name": "node_id10"
    },
    {
      "children": [
        13
      ],
      "matrix": [
        544.4464721679688,
        0.0,
        0.0,
        0.0,
        0.0,
        -6.490306981380259e-05,
        -544.4463500976563,
        0.0,
        0.0,
        544.4463500976563,
        -6.490306981380259e-05,
        0.0,
        95.84062194824219,
        -400.0175476074219,
        -114.22084045410156,
        1.0
      ],
      "name": "Object_12"
    },
    {
      "mesh": 3,
      "name": "node_id10_Material_96_0"
    }
  ],
  "samplers": [
    {
      "magFilter": 9729,
      "minFilter": 9987,
      "wrapS": 10497,
      "wrapT": 10497
    }
  ],
  "scene": 0,
  "scenes": [
    {
      "name": "Sketchfab_Scene",
      "nodes": [
        0
      ]
    }
  ],
  "textures": [
    {
      "sampler": 0,
      "source": 0
    },
    {
      "sampler": 0,
      "source": 1
    },
    {
      "sampler": 0,
      "source": 2
    }
  ]
}
