{
  "accessors": [
    {
      "bufferView": 2,
      "componentType": 5126,
      "count": 1818,
      "max": [
        21.623815536499023,
        19.438398361206055,
        57.807861328125
      ],
      "min": [
        -18.637596130371094,
        -18.637596130371094,
        -19.226526260375977
      ],
      "type": "VEC3"
    },
    {
      "bufferView": 2,
      "byteOffset": 21816,
      "componentType": 5126,
      "count": 1818,
      "max": [
        0.9991546869277954,
        0.9992820620536804,
        0.9992799758911133
      ],
      "min": [
        -0.9994814991950989,
        -0.9993382096290588,
        -0.9999136328697205
      ],
      "type": "VEC3"
    },
    {
      "bufferView": 1,
      "componentType": 5126,
      "count": 1818,
      "max": [
        0.6243243217468262,
        0.6556490659713745
      ],
      "min": [
        0.5166469216346741,
        0.02019834890961647
      ],
      "type": "VEC2"
    },
    {
      "bufferView": 0,
      "componentType": 5125,
      "count": 10800,
      "type": "SCALAR"
    },
    {
      "bufferView": 2,
      "byteOffset": 43632,
      "componentType": 5126,
      "count": 2052,
      "max": [
        65.20610046386719,
        88.1347885131836,
        48.380409240722656
      ],
      "min": [
        -34.33905029296875,
        -61.80030059814453,
        -63.73756790161133
      ],
      "type": "VEC3"
    },
    {
      "bufferView": 2,
      "byteOffset": 68256,
      "componentType": 5126,
      "count": 2052,
      "max": [
        0.998665452003479,
        0.9999994039535522,
        0.9999879598617554
      ],
      "min": [
        -0.998661994934082,
        -0.9998837113380432,
        -0.9974801540374756
      ],
      "type": "VEC3"
    },
    {
      "bufferView": 1,
      "byteOffset": 14544,
      "componentType": 5126,
      "count": 2052,
      "max": [
        0.9621000289916992,
        0.9900000095367432
      ],
      "min": [
        0.009999999776482582,
        0.009999999776482582
      ],
      "type": "VEC2"
    },
    {
      "bufferView": 0,
      "byteOffset": 43200,
      "componentType": 5125,
      "count": 9546,
      "type": "SCALAR"
    },
    {
      "bufferView": 2,
      "byteOffset": 92880,
      "componentType": 5126,
      "count": 427,
      "max": [
        111.68697357177734,
        111.68697357177734,
        6.275964260101318
      ],
      "min": [
        -117.8736343383789,
        -117.8736343383789,
        -17.447416305541992
      ],
      "type": "VEC3"
    },
    {
      "bufferView": 2,
      "byteOffset": 98004,
      "componentType": 5126,
      "count": 427,
      "max": [
        1.0,
        1.0,
        0.999980092048645
      ],
      "min": [
        -1.0,
        -1.0,
        -1.0
      ],
      "type": "VEC3"
    },
    {
      "bufferView": 1,
      "byteOffset": 30960,
      "componentType": 5126,
      "count": 427,
      "max": [
        0.558462381362915,
        0.57298743724823
      ],
      "min": [
        0.5238450765609741,
        0.46167558431625366
      ],
      "type": "VEC2"
    },
    {
      "bufferView": 0,
      "byteOffset": 81384,
      "componentType": 5125,
      "count": 1116,
      "type": "SCALAR"
    }
  ],
  "asset": {
    "extras": {
      "author": "zhixson (https://sketchfab.com/zhixson)",
      "license": "CC-BY-4.0 (http://creativecommons.org/licenses/by/4.0/)",
      "source": "https://sketchfab.com/3d-models/arctic-fox-3december-3d702d2b35ba4eb4b4f20a2b3e65378b",
      "title": "Arctic Fox - 3December"
    },
    "generator": "Sketchfab-12.66.0",
    "version": "2.0"
  },
  "bufferViews": [
    {
      "buffer": 0,
      "byteLength": 85848,
      "name": "floatBufferViews",
      "target": 34963
    },
    {
      "buffer": 0,
      "byteLength": 34376,
      "byteOffset": 85848,
      "byteStride": 8,
      "name": "floatBufferViews",
      "target": 34962
    },
    {
      "buffer": 0,
      "byteLength": 103128,
      "byteOffset": 120224,
      "byteStride": 12,
      "name": "floatBufferViews",
      "target": 34962
    }
  ],
  "buffers": [
    {
      "byteLength": 223352,
      "uri": "scene.bin"
    }
  ],
  "extensionsUsed": [
    "KHR_materials_unlit"
  ],
  "images": [
    {
      "uri": "textures/Snow_baseColor.png"
    },
    {
      "uri": "textures/material_baseColor.png"
    }
  ],
  "materials": [
    {
      "doubleSided": true,
      "extensions": {
        "KHR_materials_unlit": {}
      },
      "name": "Snow",
      "pbrMetallicRoughness": {
        "baseColorTexture": {
          "index": 0
        },
        "metallicFactor": 0.0
      }
    },
    {
      "doubleSided": true,
      "extensions": {
        "KHR_materials_unlit": {}
      },
      "name": "material",
      "pbrMetallicRoughness": {
        "baseColorTexture": {
          "index": 1
        },
        "metallicFactor": 0.0
      }
    }
  ],
  "meshes": [
    {
      "name": "Snowman_Snow_0",
      "primitives": [
        {
          "attributes": {
            "NORMAL": 1,
            "POSITION": 0,
            "TEXCOORD_0": 2
          },
          "indices": 3,
          "material": 0,
          "mode": 4
        }
      ]
    },
    {
      "name": "SnowFox_Fox_0",
      "primitives": [
        {
          "attributes": {
            "NORMAL": 5,
            "POSITION": 4,
            "TEXCOORD_0": 6
          },
          "indices": 7,
          "material": 1,
          "mode": 4
        }
      ]
    },
    {
      "name": "Ground_Snow_0",
      "primitives": [
        {
          "attributes": {
            "NORMAL": 9,
            "POSITION": 8,
            "TEXCOORD_0": 10
          },
          "indices": 11,
          "material": 0,
          "mode": 4
        }
      ]
    }
  ],
  "nodes": [
    {
      "children": [
        1
      ],
      "matrix": [
        1.0,
        0.0,
        0.0,
        0.0,
        0.0,
        2.220446049250313e-16,
        -1.0,
        0.0,
        0.0,
        1.0,
        2.220446049250313e-16,
        0.0,
        0.0,
        0.0,
        0.0,
        1.0
      ],
      "name": "Sketchfab_model"
    },
    {
      "children": [
        2
      ],
      "matrix": [
        1.0,
        0.0,
        0.0,
        0.0,
        0.0,
        0.0,
        1.0,
        0.0,
        0.0,
        -1.0,
        0.0,
        0.0,
        0.0,
        0.0,
        0.0,
        1.0
      ],
      "name": "836421c3a0524aaf94596890497a2b2f.fbx"
    },
    {
      "children": [
        3,
        5,
        8
      ],
      "name": "RootNode"
    },
    {
      "children": [
        4
      ],
      "matrix": [
        0.9018771632530654,
        0.32579404058325256,
        0.2836826140655109,
        0.0,
        0.31315808112179777,
        -0.04071324725345438,
        -0.9488279336772252,
        0.0,
        -0.29757284592300604,
        0.9445637483084544,
        -0.13874338452973456,
        0.0,
        30.0,
        10.929590225219727,
        -18.013988494873047,
        1.0
      ],
      "name": "Snowman"
    },
    {
      "mesh": 0,
      "name": "Snowman_Snow_0"
    },
    {
      "children": [
        6
      ],
      "matrix": [
        -0.23715255308392164,
        2.9042811751007396e-17,
        -0.07911173469073832,
        0.0,
        3.4580838988068223e-09,
        0.24999999999999975,
        -1.0366267676036001e-08,
        0.0,
        0.07911173469073823,
        -1.092784744505595e-08,
        -0.2371525530839214,
        0.0,
        -0.713134765625,
        0.0,
        34.85400390625,
        1.0
      ],
      "name": "SnowFox"
    },
    {
      "children": [
        7
      ],
      "matrix": [
        1.0,
        0.0,
        -0.0,
        0.0,
        0.0,
        1.0,
        0.0,
        0.0,
        0.0,
        0.0,
        1.0,
        0.0,
        0.0,
        61.71761703491211,
        -2.697762738534948e-06,
        1.0
      ],
      "name": "Object_6"
    },
    {
      "mesh": 1,
      "name": "SnowFox_Fox_0"
    },
    {
      "children": [
        9
      ],
      "matrix": [
        1.0,
        0.0,
        0.0,
        0.0,
        0.0,
        2.220446049250313e-16,
        -1.0,
        0.0,
        0.0,
        1.0,
        2.220446049250313e-16,
        0.0,
        4.587577819824219,
        0.0,
        9.011688232421875,
        1.0
      ],
      "name": "Ground"
    },
    {
      "mesh": 2,
      "name": "Ground_Snow_0"
    }
  ],
  "samplers": [
    {
      "magFilter": 9729,
      "minFilter": 9987,
      "wrapS": 10497,
      "wrapT": 10497
    }
  ],
  "scene": 0,
  "scenes": [
    {
      "name": "Sketchfab_Scene",
      "nodes": [
        0
      ]
    }
  ],
  "textures": [
    {
      "sampler": 0,
      "source": 0
    },
    {
      "sampler": 0,
      "source": 1
    }
  ]
}
